HIERARCHY
ROOT Hips
{
	OFFSET 0.000000 0.000000 0.000000
	CHANNELS 6 Xposition Yposition Zposition Zrotation Yrotation Xrotation 
	JOINT LHipJoint
	{
		OFFSET 0.000000 0.000000 0.000000
		CHANNELS 3 Zrotation Yrotation Xrotation
		JOINT LeftUpLeg
		{
			OFFSET 1.363060 -1.794630 0.839290
			CHANNELS 3 Zrotation Yrotation Xrotation
			JOINT LeftLeg
			{
				OFFSET 2.448110 -6.726130 0.000000
				CHANNELS 3 Zrotation Yrotation Xrotation
				JOINT LeftFoot
				{
					OFFSET 2.562200 -7.039590 0.000000
					CHANNELS 3 Zrotation Yrotation Xrotation
					JOINT LeftToeBase
					{
						OFFSET 0.157640 -0.433110 2.322550
						CHANNELS 3 Zrotation Yrotation Xrotation
						End Site
						{
							OFFSET 0.000000 0.000000 0.000000
						}
					}
				}
			}
		}
	}
	JOINT RHipJoint
	{
		OFFSET 0.000000 0.000000 0.000000
		CHANNELS 3 Zrotation Yrotation Xrotation
		JOINT RightUpLeg
		{
			OFFSET -1.305520 -1.794630 0.839290
			CHANNELS 3 Zrotation Yrotation Xrotation
			JOINT RightLeg
			{
				OFFSET -2.542530 -6.985550 0.000000
				CHANNELS 3 Zrotation Yrotation Xrotation
				JOINT RightFoot
				{
					OFFSET -2.568260 -7.056230 0.000000
					CHANNELS 3 Zrotation Yrotation Xrotation
					JOINT RightToeBase
					{
						OFFSET -0.164730 -0.452590 2.363150
						CHANNELS 3 Zrotation Yrotation Xrotation
						End Site
						{
							OFFSET 0.000000 0.000000 0.000000
						}
					}
				}
			}
		}
	}
	JOINT LowerBack
	{
		OFFSET 0.000000 0.000000 0.000000
		CHANNELS 3 Zrotation Yrotation Xrotation
		JOINT Spine
		{
			OFFSET 0.028270 2.035590 -0.193380
			CHANNELS 3 Zrotation Yrotation Xrotation
			JOINT Spine1
			{
				OFFSET 0.056720 2.048850 -0.042750
				CHANNELS 3 Zrotation Yrotation Xrotation
				JOINT Neck
				{
					OFFSET 0.000000 0.000000 0.000000
					CHANNELS 3 Zrotation Yrotation Xrotation
					JOINT Neck1
					{
						OFFSET -0.054170 1.746240 0.172020
						CHANNELS 3 Zrotation Yrotation Xrotation
						JOINT Head
						{
							OFFSET 0.104070 1.761360 -0.123970
							CHANNELS 3 Zrotation Yrotation Xrotation
							End Site
							{
								OFFSET 0.000000 0.000000 0.000000
							}
						}
					}
				}
				JOINT LeftShoulder
				{
					OFFSET 0.000000 0.000000 0.000000
					CHANNELS 3 Zrotation Yrotation Xrotation
					JOINT LeftArm
					{
						OFFSET 3.362410 1.200890 -0.311210
						CHANNELS 3 Zrotation Yrotation Xrotation
						JOINT LeftForeArm
						{
							OFFSET 4.983000 -0.000000 -0.000000
							CHANNELS 3 Zrotation Yrotation Xrotation
							JOINT LeftHand
							{
								OFFSET 3.483560 -0.000000 -0.000000
								CHANNELS 3 Zrotation Yrotation Xrotation
								JOINT LeftFingerBase
								{
									OFFSET 0.000000 0.000000 0.000000
									CHANNELS 3 Zrotation Yrotation Xrotation
									JOINT LeftHandIndex1
									{
										OFFSET 0.715260 -0.000000 -0.000000
										CHANNELS 3 Zrotation Yrotation Xrotation
										End Site
										{
											OFFSET 0.000000 0.000000 0.000000
										}
									}
								}
								JOINT LThumb
								{
									OFFSET 0.000000 0.000000 0.000000
									CHANNELS 3 Zrotation Yrotation Xrotation
									End Site
									{
										OFFSET 0.000000 0.000000 0.000000
									}
								}
							}
						}
					}
				}
				JOINT RightShoulder
				{
					OFFSET 0.000000 0.000000 0.000000
					CHANNELS 3 Zrotation Yrotation Xrotation
					JOINT RightArm
					{
						OFFSET -3.136600 1.374050 -0.404650
						CHANNELS 3 Zrotation Yrotation Xrotation
						JOINT RightForeArm
						{
							OFFSET -5.241900 -0.000000 -0.000000
							CHANNELS 3 Zrotation Yrotation Xrotation
							JOINT RightHand
							{
								OFFSET -3.444170 -0.000000 -0.000000
								CHANNELS 3 Zrotation Yrotation Xrotation
								JOINT RightFingerBase
								{
									OFFSET 0.000000 0.000000 0.000000
									CHANNELS 3 Zrotation Yrotation Xrotation
									JOINT RightHandIndex1
									{
										OFFSET -0.622530 -0.000000 -0.000000
										CHANNELS 3 Zrotation Yrotation Xrotation
										End Site
										{
											OFFSET 0.000000 0.000000 0.000000
										}
									}
								}
								JOINT RThumb
								{
									OFFSET 0.000000 0.000000 0.000000
									CHANNELS 3 Zrotation Yrotation Xrotation
									End Site
									{
										OFFSET 0.000000 0.000000 0.000000
									}
								}
							}
						}
					}
				}
			}
		}
	}
}
MOTION
Frames: 11
Frame Time: 0.008333
-3.083442 19.249757 -30.438392 132.696188 -66.580761 -143.116970 0.395644 -0.360210 -3.604655 -7.388930 -1.479095 -33.324508 -3.564744 0.975979 -2.454172 -2.970467 19.431806 17.635759 1.128400 6.747100 18.968300 2.289912 -3.970934 5.784109 3.185740 20.340442 1.397508 0.837096 -8.331380 27.033072 -3.754472 3.620336 26.221508 -2.435200 -9.719100 28.071900 2.423289 6.788493 3.838856 1.169251 8.023686 7.135903 5.930671 4.008218 8.654430 13.153012 22.891679 -1.111088 -9.678089 33.322099 26.571373 0.633800 16.649500 6.755500 -7.029138 -4.900325 2.595862 10.916576 21.537508 -36.738354 13.753577 -18.974145 -5.233338 -0.142901 -11.083200 -35.686894 41.966096 41.208803 39.769000 -7.125000 0.000000 0.000000 -2.672100 -1.473800 177.394700 9.238599 7.749807 -0.290628 65.248795 -42.930840 65.294683 -18.754681 26.236493 -6.253861 -2.062553 -1.259450 -1.482925 8.839797 31.534792 5.919500 7.125000 0.000000 0.000000 23.513500 0.797000 26.134800 
-3.109252 19.184262 -30.459101 133.030838 -67.455160 -143.398092 0.146113 -0.375572 -3.530371 -8.158646 -2.274400 -32.893558 -3.646231 0.939823 -2.385255 -3.052035 19.636990 17.341244 0.860000 5.913600 16.534000 2.431334 -3.836780 5.743426 3.818758 19.421527 1.106698 0.716601 -8.523498 27.759797 -3.868090 4.348328 25.867971 -2.232100 -9.333600 26.844500 2.370545 6.737947 3.681946 1.390425 7.979342 7.086513 5.928044 3.985500 8.535666 12.698929 22.879754 -1.042215 -9.432692 33.229662 26.229126 0.641200 16.605300 6.607700 -7.327938 -4.942614 2.670484 9.667028 21.482312 -37.741940 13.815574 -19.004111 -5.302872 -0.083256 -11.063513 -36.153023 42.139073 41.354012 39.978700 -7.125000 0.000000 0.000000 -2.703700 -1.322400 177.356500 9.414549 7.729526 -0.313812 64.769482 -42.382637 64.846396 -18.003206 25.509098 -5.950980 -2.138385 -1.288550 -0.819873 9.712543 31.813673 6.489300 7.125000 0.000000 0.000000 23.966400 1.082900 26.868200 
-3.131594 19.130500 -30.488176 134.100951 -68.418510 -144.315984 -0.097500 -0.349642 -3.426581 -8.701160 -2.915662 -32.287981 -3.709880 0.898045 -2.338949 -2.968673 19.924909 18.234546 0.199400 2.875700 7.932900 2.661150 -3.648990 5.663122 4.655675 18.497939 0.769330 0.590551 -8.727987 28.520941 -3.970520 5.118702 25.333593 -1.973100 -8.809800 25.202100 2.588605 6.785405 3.445741 1.476252 8.056509 7.011236 5.813170 4.033258 8.539548 12.912660 22.748132 -1.073909 -9.643177 33.046860 25.806305 0.543200 16.491700 6.584300 -7.617951 -5.033800 2.739646 8.515637 21.178938 -38.883886 13.795814 -18.946253 -5.328939 -0.050756 -11.098549 -36.604514 42.635615 41.568030 40.582100 -7.125000 0.000000 0.000000 -2.846000 -0.949600 177.198100 9.575036 7.772292 -0.375181 64.938716 -41.607238 63.779235 -17.308786 24.832627 -5.684067 -2.211546 -1.323003 0.168101 10.382425 32.297655 6.990000 7.125000 0.000000 0.000000 24.292800 1.585000 27.533200 
-3.157608 19.075615 -30.523473 135.613668 -69.287205 -145.565495 -0.271326 -0.236479 -3.245600 -9.193204 -3.323939 -31.534499 -3.743264 0.873960 -2.218866 -3.319025 20.582833 17.404700 0.287800 3.450000 9.534200 2.934163 -3.448107 5.517921 5.588115 17.955308 0.501212 0.440889 -8.976179 29.341684 -4.008997 5.723107 24.611005 -1.884300 -8.620700 24.616000 2.695902 6.848708 2.965216 1.640954 8.155468 6.847162 5.842172 4.075840 8.689163 13.357232 22.597333 -0.787757 -10.194982 32.927368 25.182975 0.333000 16.393500 6.551400 -7.925327 -5.129379 2.804193 7.246084 20.940987 -39.495767 13.737819 -18.836244 -5.329461 0.021630 -11.105041 -37.567555 43.198396 41.526674 41.146800 -7.125000 0.000000 0.000000 -3.158100 -0.808000 176.882000 9.728479 7.815458 -0.414061 64.915613 -40.789338 63.149060 -16.898751 24.419329 -5.526643 -2.264772 -1.328703 0.809763 10.887240 32.429961 7.327100 7.125000 0.000000 0.000000 24.551700 1.728500 27.955100 
-3.180459 19.022771 -30.560709 136.706592 -70.023078 -146.443318 -0.463101 -0.082056 -3.000155 -9.910384 -3.600046 -30.562084 -3.781606 0.841590 -2.023082 -3.787395 21.206938 15.858058 0.570800 4.838600 13.448700 3.138550 -3.287403 5.363913 6.346028 17.474579 0.193175 0.268548 -9.251249 30.195749 -4.075566 6.380180 23.643155 -1.281900 -7.174900 20.234600 2.511387 6.880687 2.542782 1.750674 8.218179 6.740211 5.925414 4.080242 8.686765 13.188548 22.624735 -0.707676 -10.060249 32.879599 24.536060 0.297200 16.369100 6.398400 -8.245175 -5.268408 2.873717 5.861418 20.523273 -40.631669 13.593115 -18.600470 -5.286504 -0.012551 -11.162888 -37.919712 43.991178 41.674964 42.053200 -7.125000 0.000000 0.000000 -3.472000 -0.368800 176.544100 9.913751 7.858719 -0.448472 64.829147 -39.865258 62.730229 -16.625881 24.146296 -5.441005 -2.290503 -1.375945 1.283510 10.994434 33.052679 7.525300 7.125000 0.000000 0.000000 24.567900 2.363900 28.253900 
-3.201883 18.956154 -30.600292 137.744578 -70.905566 -147.340183 -0.661766 0.106650 -2.710382 -10.609853 -3.913092 -29.326989 -3.818525 0.792904 -1.801949 -4.219397 21.743546 14.352517 0.990100 6.333100 17.754000 3.318372 -3.131626 5.212499 7.178746 16.784851 -0.162801 0.046476 -9.573606 31.193646 -4.182290 7.213709 22.171240 -0.425400 -4.185900 11.600100 2.347453 6.841322 2.203671 1.985797 8.188966 6.711126 5.933130 4.040825 8.598724 12.277162 22.745273 -0.567594 -9.590515 32.862734 23.455827 0.315700 16.362300 6.037100 -8.619211 -5.485839 2.967534 4.161914 19.829002 -42.476105 13.512414 -18.407855 -5.286147 -0.140349 -11.194427 -37.565275 44.592004 41.969784 42.795600 -7.125000 0.000000 0.000000 -176.378400 0.335900 -3.607500 10.120451 7.912712 -0.466370 64.506905 -38.984341 62.928524 -16.775842 24.282095 -5.519659 -2.284102 -1.403829 1.127092 10.951079 33.430859 7.573000 7.125000 0.000000 0.000000 24.521000 2.733000 28.345900 
-3.219940 18.890456 -30.643955 139.353967 -71.911022 -148.791954 -0.848677 0.329649 -2.394030 -11.098465 -4.122669 -27.906068 -3.841550 0.740471 -1.595507 -4.550710 22.373673 13.718951 1.216500 6.996300 19.704500 3.542768 -2.947385 5.050124 8.165521 15.948774 -0.605413 -0.196004 -9.917811 32.261806 -4.255340 7.958220 21.050051 -0.104400 -2.083200 5.735500 2.537212 6.774352 1.825376 2.169483 8.118052 6.709173 5.647622 4.010443 8.598653 11.693272 22.832893 -0.264613 -9.451021 32.845240 22.140707 0.230400 16.339600 5.711200 -8.996865 -5.747523 3.055578 2.314625 19.176253 -43.966155 13.575835 -18.425581 -5.383051 -0.141144 -11.213264 -37.515817 45.239365 42.695609 43.718900 -7.125000 0.000000 0.000000 -176.443400 1.187800 -3.488900 10.316405 8.001269 -0.505438 64.575513 -37.952355 62.856475 -16.996953 24.442612 -5.618505 -2.265045 -1.435309 1.042395 10.605029 33.876067 7.446200 7.125000 0.000000 0.000000 24.316400 3.175900 28.243600 
-3.234324 18.814862 -30.688740 140.777430 -72.881470 -150.114884 -0.964262 0.337841 -2.273426 -11.596401 -4.692623 -27.362973 -3.853538 1.667039 0.885922 -4.400337 22.137484 14.989626 0.371200 3.913400 10.833200 3.691428 -2.747689 4.926872 9.161437 14.991739 -1.065779 -0.476506 -10.247963 33.383959 -4.272630 8.533424 20.131216 -0.027100 -1.063500 2.923400 2.747835 6.723018 1.618305 2.147553 8.069101 6.655233 5.239438 4.012338 8.469381 11.556676 22.826655 -0.275406 -9.268650 32.714551 21.402099 0.195300 16.275200 5.575600 -9.338825 -5.989812 3.113594 0.647436 18.481928 -44.348714 13.547284 -18.377971 -5.431892 -0.019404 -11.234723 -38.425573 46.018492 43.143172 44.690300 -7.125000 0.000000 0.000000 -176.303900 1.868500 -3.581200 10.481819 8.138001 -0.554837 65.124716 -36.909446 62.192527 -17.204734 24.608173 -5.738170 -2.253872 -1.493872 1.132674 10.383518 34.819090 7.483100 7.125000 0.000000 0.000000 24.149300 4.109300 28.389700 
-3.249932 18.719476 -30.731281 141.989699 -73.788196 -151.355016 -0.726604 0.219703 -2.277943 -11.860557 -5.687415 -27.788069 -3.642292 3.756550 6.218249 -4.062858 20.583920 15.293446 0.001700 -0.266600 -0.732400 3.746406 -2.524429 4.835331 10.121183 14.010972 -1.507039 -0.784378 -10.554419 34.569900 -4.331050 9.297959 19.341336 -0.020500 -0.925200 2.543100 2.847914 6.646819 1.532428 2.092602 7.980731 6.586156 4.827109 4.004447 8.312727 11.178649 22.830617 -0.089616 -8.970149 32.537477 20.046441 0.121900 16.190400 5.279100 -9.653075 -6.257278 3.150415 -0.919924 17.618246 -44.754590 13.323462 -18.071368 -5.382001 0.056457 -11.264168 -38.926835 46.345647 43.586160 45.197400 -7.125000 0.000000 0.000000 -176.351500 2.333400 -3.504200 10.660161 8.273466 -0.580659 65.401097 -35.976338 62.335399 -17.733572 25.081553 -5.954351 -2.174764 -1.523197 0.533405 9.384236 35.181773 6.902300 7.125000 0.000000 0.000000 23.618100 4.477600 27.783500 
-3.263807 18.622153 -30.773005 143.046620 -74.746516 -152.305576 -0.521228 0.145585 -2.015545 -14.272145 -2.050584 -29.053794 -3.482542 5.130390 10.211139 -2.042971 15.207358 19.168362 0.241700 -3.163600 -8.734500 3.791863 -2.277045 4.659149 11.008034 12.919372 -2.083515 -1.082999 -10.875624 35.768270 -4.408306 10.153453 19.026688 -0.190300 -2.809800 7.749600 3.046850 6.548166 1.244152 1.857253 7.858846 6.562050 4.236855 3.982368 8.258252 11.025382 22.748489 -0.034849 -8.953063 32.267843 18.618036 -0.001600 16.044300 5.049900 -9.955500 -6.544280 3.176520 -2.564735 16.730100 -44.401631 13.174918 -17.875109 -5.370464 0.250819 -11.182281 -40.043410 46.026453 43.785597 44.869600 -7.125000 0.000000 0.000000 -176.526900 2.229600 -3.341600 10.816357 8.418160 -0.606479 65.798682 -35.033105 62.866224 -18.527065 25.797997 -6.286213 -2.087533 -1.538986 -0.711641 8.734197 35.418727 6.507500 7.125000 0.000000 0.000000 23.268500 4.693200 27.375300 
-3.276559 18.531052 -30.817688 142.614848 -75.679576 -151.673443 -0.321845 0.192582 -1.743220 -16.033407 -0.397519 -29.356701 -3.205639 6.356655 13.963444 -0.886910 11.025835 20.042955 0.472200 -4.407400 -12.225700 3.723321 -2.071339 4.474708 11.533108 11.639033 -2.939563 -1.390961 -11.212508 36.993383 -4.539692 11.170733 18.948873 -0.564100 -4.810600 13.369300 2.955172 6.404423 0.744692 1.430787 7.691599 6.556309 3.664424 3.909201 8.275915 10.899560 22.746092 -0.170786 -8.890585 32.106875 17.474925 -0.066100 15.954800 4.903100 -10.252807 -6.855904 3.188658 -4.353491 15.744670 -43.465609 13.080728 -17.771743 -5.396837 0.512457 -11.039781 -41.288923 45.275902 44.108722 44.095500 -7.125000 0.000000 0.000000 -176.944200 1.994200 -2.951900 10.956143 8.574652 -0.630959 66.311272 -34.220045 63.126525 -19.455262 26.642767 -6.699229 -1.995398 -1.547837 -1.546057 7.796502 35.791120 5.944100 7.125000 0.000000 0.000000 22.766800 5.060500 26.813200 
